<svg width="330" height="174" viewBox="0 0 330 174" fill="none" xmlns="http://www.w3.org/2000/svg">
<g filter="url(#filter0_d_3_677)">
<path d="M113.56 117.493V116.928C113.56 116.416 113.981 116 114.5 116C115.019 116 115.439 116.416 115.439 116.928V117.493C115.439 118.006 115.019 118.422 114.5 118.422C113.981 118.422 113.56 118.006 113.56 117.493ZM104.474 120.396C104.648 120.694 104.964 120.86 105.288 120.86C105.448 120.86 105.609 120.82 105.757 120.736C106.207 120.48 106.361 119.912 106.102 119.468L105.816 118.979C105.556 118.535 104.982 118.382 104.532 118.638C104.083 118.895 103.929 119.462 104.188 119.906L104.474 120.396ZM123.242 120.736C123.39 120.82 123.552 120.861 123.711 120.861C124.036 120.861 124.352 120.694 124.526 120.396L124.812 119.907C125.071 119.463 124.917 118.895 124.468 118.639C124.018 118.383 123.444 118.535 123.184 118.979L122.898 119.468C122.639 119.912 122.793 120.48 123.242 120.736ZM130.457 127.523C130.616 127.523 130.778 127.483 130.926 127.399L131.421 127.116C131.87 126.86 132.024 126.292 131.765 125.848C131.505 125.404 130.931 125.252 130.481 125.508L129.986 125.791C129.537 126.047 129.383 126.615 129.642 127.059C129.816 127.357 130.132 127.523 130.457 127.523ZM132.899 143.987C131.679 146.376 128.27 147.981 124.415 147.981C121.773 147.981 119.297 147.228 117.615 145.939C116.651 146.592 115.633 147.012 114.625 147.14C114.579 147.146 114.533 147.148 114.488 147.148C114.451 147.148 114.413 147.145 114.375 147.14C113.367 147.012 112.349 146.592 111.385 145.939C109.702 147.228 107.227 147.981 104.585 147.981C100.73 147.981 97.3207 146.376 96.1006 143.987C95.9664 143.724 95.9662 143.414 96.1006 143.151C97.0009 141.387 99.0595 140.05 101.665 139.471C100.313 137.574 99.8192 135.333 100.431 133.415C100.506 133.181 100.673 132.985 100.893 132.871C102.437 132.077 104.395 132.019 106.301 132.679C106.584 131.753 107.03 130.947 107.633 130.319C107.839 130.104 108.137 130 108.435 130.038C108.927 130.1 109.422 130.233 109.912 130.428C110.907 128.352 112.372 126.804 114.108 126.017C114.356 125.904 114.643 125.904 114.892 126.017C116.627 126.804 118.092 128.351 119.086 130.425C119.576 130.232 120.072 130.101 120.565 130.038C120.863 130 121.161 130.104 121.367 130.319C121.97 130.947 122.415 131.753 122.698 132.679C124.605 132.019 126.562 132.077 128.106 132.871C128.327 132.985 128.493 133.181 128.568 133.415C129.181 135.333 128.687 137.574 127.335 139.471C129.94 140.05 131.999 141.387 132.899 143.15C133.033 143.414 133.033 143.724 132.899 143.987ZM121.522 141.354C122.543 141.103 123.556 140.587 124.449 139.847C126.273 138.336 127.228 136.135 126.874 134.356C125.771 133.932 124.394 133.998 123.037 134.536C123.168 136.269 122.851 138.23 122.07 140.159C121.904 140.569 121.72 140.968 121.522 141.354ZM111.56 131.333C112.643 132.094 113.652 133.148 114.498 134.408C115.348 133.134 116.357 132.082 117.436 131.325C116.713 129.78 115.677 128.572 114.5 127.904C113.321 128.573 112.284 129.784 111.56 131.333ZM104.55 139.847C105.443 140.587 106.457 141.103 107.478 141.354C107.279 140.968 107.096 140.57 106.93 140.159C106.149 138.23 105.832 136.269 105.962 134.536C104.606 133.998 103.229 133.932 102.125 134.355C101.772 136.134 102.727 138.335 104.55 139.847ZM109.901 144.708C109.496 144.306 109.11 143.862 108.747 143.382C106.885 143.351 104.943 142.597 103.342 141.269C103.275 141.214 103.209 141.157 103.143 141.1C100.855 141.38 98.9369 142.312 98.0344 143.569C99.1316 145.093 101.725 146.125 104.585 146.125C106.614 146.125 108.556 145.596 109.901 144.708ZM114.135 137.709C113.198 135.397 111.633 133.49 109.987 132.527C109.941 132.506 109.898 132.481 109.857 132.453C109.467 132.238 109.075 132.076 108.685 131.975C108.295 132.525 108.035 133.229 107.905 134.031C107.902 134.08 107.894 134.129 107.883 134.177C107.666 135.726 107.925 137.618 108.675 139.469C109.431 141.338 110.599 142.942 111.888 143.996C111.918 144.018 111.947 144.041 111.975 144.066C112.673 144.622 113.405 145.016 114.124 145.204C115.279 143.572 115.302 140.591 114.135 137.709ZM120.325 139.469C121.075 137.619 121.333 135.727 121.117 134.179C121.105 134.129 121.098 134.079 121.094 134.029C120.965 133.228 120.704 132.524 120.314 131.974C119.931 132.074 119.543 132.232 119.158 132.443C119.107 132.479 119.052 132.51 118.993 132.536C117.715 133.287 116.481 134.609 115.553 136.273C115.668 136.517 115.777 136.766 115.879 137.019C116.945 139.65 117.146 142.338 116.529 144.43C116.696 144.317 116.863 144.195 117.028 144.064C117.054 144.041 117.081 144.019 117.109 143.999C118.399 142.944 119.568 141.339 120.325 139.469ZM130.965 143.569C130.063 142.312 128.145 141.38 125.856 141.1C125.791 141.157 125.724 141.214 125.657 141.269C124.056 142.596 122.114 143.35 120.252 143.382C119.89 143.862 119.504 144.306 119.099 144.708C120.444 145.596 122.385 146.125 124.415 146.125C127.274 146.125 129.868 145.093 130.965 143.569ZM123.609 150.435C123.217 150.098 122.624 150.138 122.283 150.525C121.69 151.197 118.884 152.143 114.5 152.143C110.116 152.143 107.309 151.197 106.717 150.525C106.376 150.138 105.782 150.098 105.391 150.435C105 150.771 104.959 151.358 105.3 151.744C106.768 153.409 111.173 154 114.5 154C117.827 154 122.232 153.409 123.7 151.744C124.041 151.358 124 150.771 123.609 150.435ZM102.148 130.792C102.647 130.931 103.166 130.644 103.307 130.151C104.712 125.225 109.314 121.785 114.5 121.785C119.685 121.785 124.288 125.225 125.693 130.151C125.809 130.56 126.186 130.827 126.597 130.827C126.681 130.827 126.767 130.816 126.852 130.792C127.351 130.653 127.642 130.141 127.501 129.647C125.87 123.925 120.523 119.929 114.5 119.929C108.477 119.929 103.13 123.925 101.498 129.647C101.358 130.141 101.648 130.653 102.148 130.792ZM114.5 150.88C115.307 150.88 118.016 150.795 118.98 149.701C119.321 149.314 119.28 148.728 118.888 148.391C118.499 148.056 117.909 148.095 117.568 148.476C117.354 148.668 116.242 149.023 114.5 149.023C112.758 149.023 111.646 148.668 111.431 148.476C111.09 148.095 110.501 148.056 110.111 148.391C109.72 148.728 109.679 149.314 110.02 149.701C110.984 150.795 113.693 150.88 114.5 150.88ZM97.5786 127.116L98.0736 127.399C98.2216 127.483 98.3832 127.523 98.5428 127.523C98.8674 127.523 99.1831 127.357 99.3573 127.059C99.6169 126.615 99.4631 126.048 99.0138 125.791L98.5188 125.508C98.0698 125.252 97.4948 125.404 97.2352 125.848C96.9756 126.292 97.1294 126.859 97.5786 127.116Z" fill="white"/>
</g>
<g opacity="0.5">
<path d="M318.405 135.12C322.029 135.12 324.966 132.183 324.966 128.56C324.966 124.937 322.029 122 318.405 122C314.782 122 311.845 124.937 311.845 128.56C311.845 132.183 314.782 135.12 318.405 135.12Z" stroke="white" stroke-width="1.5" stroke-linecap="round" stroke-linejoin="round"/>
<path fill-rule="evenodd" clip-rule="evenodd" d="M308 144.244C307.998 143.783 308.101 143.327 308.302 142.912C308.93 141.655 310.702 140.989 312.172 140.688C313.233 140.461 314.308 140.31 315.39 140.235C317.392 140.059 319.407 140.059 321.409 140.235C322.491 140.311 323.566 140.462 324.626 140.688C326.097 140.989 327.869 141.592 328.497 142.912C328.9 143.759 328.9 144.742 328.497 145.589C327.869 146.908 326.097 147.512 324.626 147.801C323.567 148.036 322.492 148.192 321.409 148.266C319.779 148.404 318.142 148.429 316.508 148.341C316.131 148.341 315.767 148.341 315.39 148.266C314.311 148.193 313.24 148.037 312.185 147.801C310.702 147.512 308.943 146.908 308.302 145.589C308.102 145.169 307.999 144.709 308 144.244Z" stroke="white" stroke-width="1.5" stroke-linecap="round" stroke-linejoin="round"/>
</g>
<defs>
<filter id="filter0_d_3_677" x="-24.0001" y="0" width="277" height="278" filterUnits="userSpaceOnUse" color-interpolation-filters="sRGB">
<feFlood flood-opacity="0" result="BackgroundImageFix"/>
<feColorMatrix in="SourceAlpha" type="matrix" values="0 0 0 0 0 0 0 0 0 0 0 0 0 0 0 0 0 0 127 0" result="hardAlpha"/>
<feOffset dy="4"/>
<feGaussianBlur stdDeviation="60"/>
<feColorMatrix type="matrix" values="0 0 0 0 1 0 0 0 0 1 0 0 0 0 1 0 0 0 1 0"/>
<feBlend mode="normal" in2="BackgroundImageFix" result="effect1_dropShadow_3_677"/>
<feBlend mode="normal" in="SourceGraphic" in2="effect1_dropShadow_3_677" result="shape"/>
</filter>
</defs>
</svg>
