<svg width="29" height="36" viewBox="0 0 29 36" fill="none" xmlns="http://www.w3.org/2000/svg">
<path d="M14.0379 17.5046C18.6646 17.5046 22.4152 13.7539 22.4152 9.12729C22.4152 4.50064 18.6646 0.75 14.0379 0.75C9.41128 0.75 5.66064 4.50064 5.66064 9.12729C5.66064 13.7539 9.41128 17.5046 14.0379 17.5046Z" stroke="white" stroke-width="1.5" stroke-linecap="round" stroke-linejoin="round"/>
<path fill-rule="evenodd" clip-rule="evenodd" d="M0.750028 29.1559C0.747805 28.567 0.879515 27.9853 1.13522 27.4548C1.93765 25.8499 4.20049 24.9993 6.07817 24.6142C7.43235 24.3252 8.80524 24.1321 10.1866 24.0364C12.7441 23.8118 15.3164 23.8118 17.8739 24.0364C19.2551 24.1332 20.6279 24.3263 21.9823 24.6142C23.86 24.9993 26.1228 25.7697 26.9252 27.4548C27.4395 28.5362 27.4395 29.7917 26.9252 30.8731C26.1228 32.5582 23.86 33.3285 21.9823 33.6976C20.6297 33.9986 19.2563 34.1971 17.8739 34.2914C15.7923 34.4679 13.701 34.5001 11.6149 34.3877C11.1335 34.3877 10.6681 34.3877 10.1866 34.2914C8.80932 34.1982 7.44119 33.9997 6.09422 33.6976C4.20049 33.3285 1.9537 32.5582 1.13522 30.8731C0.880821 30.3364 0.749242 29.7498 0.750028 29.1559Z" stroke="white" stroke-width="1.5" stroke-linecap="round" stroke-linejoin="round"/>
</svg>
